<svg id="svg" version="1.1" xmlns="http://www.w3.org/2000/svg" xmlns:xlink="http://www.w3.org/1999/xlink" width="400"
    height="364.9163300634737" viewBox="0, 0, 400,364.9163300634737">
    <g id="svgg">
        <path id="path0"
            d="M123.026 125.274 L 123.029 136.295 124.032 137.632 C 126.785 141.299,129.854 144.176,134.338 147.292 C 137.616 149.570,137.565 149.547,137.565 148.754 C 137.565 142.874,144.149 135.203,150.958 133.151 C 153.339 132.434,167.995 132.204,171.116 132.836 C 177.810 134.190,183.008 138.985,185.375 145.990 L 185.920 147.605 185.981 203.920 C 186.041 259.635,186.036 260.255,185.578 262.085 C 184.210 267.549,180.560 271.378,174.539 273.665 C 174.017 273.864,174.039 273.912,175.487 275.826 C 180.747 282.778,188.683 289.286,197.182 293.620 L 199.954 295.033 202.747 293.643 C 210.587 289.739,219.497 282.451,224.407 275.928 C 225.907 273.934,225.944 273.853,225.445 273.662 C 219.353 271.321,215.557 267.295,214.270 261.809 C 213.868 260.095,213.849 257.443,213.849 204.501 L 213.849 148.990 214.355 147.006 C 215.763 141.493,219.457 136.777,224.188 134.454 C 227.912 132.625,228.086 132.602,238.315 132.602 L 247.317 132.602 249.459 133.330 C 255.993 135.551,260.858 141.011,262.163 147.587 C 262.367 148.613,262.555 149.487,262.581 149.529 C 262.649 149.640,265.923 147.419,268.090 145.792 C 270.615 143.897,273.941 140.633,275.850 138.177 L 277.438 136.135 277.438 125.194 L 277.438 114.253 200.231 114.253 L 123.024 114.253 123.026 125.274 "
            stroke="none" fill="#fbfbfb" fill-rule="evenodd"></path>
        <path id="path1"
            d="M115.229 100.095 C 113.325 100.546,111.165 102.002,110.079 103.567 C 108.412 105.968,108.463 105.302,108.534 123.725 L 108.598 140.219 109.454 141.950 C 114.453 152.064,131.663 165.359,142.177 167.229 C 150.066 168.633,155.881 161.681,153.089 154.183 C 152.829 153.485,152.445 152.457,152.235 151.899 C 151.765 150.646,152.487 148.851,153.894 147.777 L 154.724 147.144 161.205 147.070 C 169.197 146.978,170.097 147.219,171.176 149.733 C 171.526 150.549,171.666 258.359,171.318 258.881 C 170.815 259.634,170.223 259.638,168.715 258.897 C 164.093 256.627,157.712 258.819,155.561 263.418 C 154.112 266.513,154.386 268.847,156.750 273.569 C 164.036 288.117,178.319 301.395,194.230 308.412 L 196.999 309.633 200.000 309.629 C 202.980 309.626,203.015 309.620,205.078 308.721 C 221.457 301.588,235.853 288.317,243.255 273.527 C 245.610 268.822,245.855 266.375,244.293 263.178 C 242.127 258.743,235.856 256.706,231.183 258.919 C 229.696 259.623,229.555 259.650,229.048 259.318 L 228.505 258.962 228.505 204.684 L 228.505 150.405 228.991 149.403 C 229.258 148.852,229.847 148.118,230.299 147.772 L 231.123 147.144 237.799 147.076 C 244.178 147.011,244.519 147.030,245.473 147.491 C 247.861 148.647,248.471 150.852,247.164 153.606 C 244.371 159.494,248.294 166.607,254.733 167.329 C 262.925 168.248,279.508 157.794,288.036 146.336 C 292.254 140.667,292.023 142.075,291.935 122.562 L 291.864 106.751 291.328 105.425 C 290.243 102.736,287.424 100.510,284.389 99.944 C 282.149 99.526,117.009 99.673,115.229 100.095 M277.436 125.274 L 277.434 136.295 276.262 137.855 C 274.514 140.182,271.905 142.868,269.520 144.796 C 267.145 146.716,262.644 149.853,262.488 149.697 C 262.433 149.642,262.242 148.760,262.065 147.737 C 260.842 140.691,254.904 134.530,247.908 133.047 C 245.590 132.555,230.477 132.583,228.205 133.084 C 221.831 134.486,216.380 139.914,214.582 146.648 L 214.080 148.529 214.080 204.616 C 214.080 267.220,213.935 261.661,215.663 265.320 C 217.356 268.903,221.147 272.146,224.986 273.294 C 226.287 273.683,226.276 273.720,223.968 276.641 C 218.845 283.124,210.764 289.686,203.076 293.606 C 199.813 295.269,200.212 295.263,197.083 293.694 C 188.463 289.371,179.864 282.146,174.504 274.721 C 173.866 273.836,173.834 273.720,174.201 273.594 C 181.222 271.178,185.030 266.680,185.809 259.883 C 186.300 255.597,186.003 148.616,185.495 146.797 C 183.750 140.552,179.039 135.433,173.226 133.466 L 171.379 132.842 162.595 132.767 C 153.091 132.687,151.999 132.783,149.116 133.947 C 143.458 136.232,138.840 141.973,137.785 148.031 L 137.514 149.587 136.905 149.201 C 132.243 146.244,126.743 141.395,124.152 137.956 L 122.793 136.152 122.793 125.202 L 122.793 114.253 200.115 114.253 L 277.438 114.253 277.436 125.274 "
            stroke="none" fill="#040404" fill-rule="evenodd"></path>
        <path id="path2"
            d="M122.900 125.216 C 122.900 131.310,122.929 133.770,122.966 130.682 C 123.002 127.595,123.002 122.609,122.966 119.603 C 122.929 116.597,122.900 119.123,122.900 125.216 "
            stroke="none" fill="#7c7c7c" fill-rule="evenodd"></path>
        <path id="path3"
            d="M272.467 142.008 L 271.321 143.220 272.533 142.074 C 273.200 141.444,273.745 140.899,273.745 140.863 C 273.745 140.690,273.531 140.882,272.467 142.008 M213.847 204.616 C 213.847 234.322,213.874 246.440,213.907 231.545 C 213.939 216.650,213.939 192.346,213.907 177.535 C 213.874 162.724,213.847 174.911,213.847 204.616 M219.273 281.708 C 218.712 282.279,218.306 282.747,218.369 282.747 C 218.432 282.747,218.943 282.279,219.504 281.708 C 220.064 281.137,220.471 280.669,220.408 280.669 C 220.344 280.669,219.834 281.137,219.273 281.708 "
            stroke="none" fill="#8c8c8c" fill-rule="evenodd"></path>
        <path id="path4"
            d="M158.280 132.660 C 160.216 132.698,163.384 132.698,165.320 132.660 C 167.256 132.621,165.672 132.589,161.800 132.589 C 157.928 132.589,156.344 132.621,158.280 132.660 M234.680 132.660 C 236.616 132.698,239.784 132.698,241.720 132.660 C 243.656 132.621,242.072 132.589,238.200 132.589 C 234.328 132.589,232.744 132.621,234.680 132.660 "
            stroke="none" fill="#6c6c6c" fill-rule="evenodd"></path>
    </g>
</svg>